<svg width="22" height="31" viewBox="0 0 22 31" fill="none" xmlns="http://www.w3.org/2000/svg">
    <path d="M.958 11.374C.958 5.822 5.448 1.332 11 1.332S21.04 5.822 21.04 11.374c0 2.997-1.607 6.67-3.65 10.095-2.023 3.394-4.397 6.42-5.781 8.095a.78.78 0 0 1-1.206 0c-1.39-1.674-3.768-4.7-5.794-8.095C2.565 18.043.958 14.37.958 11.374zm5.438 0A4.606 4.606 0 0 0 11 15.978a4.606 4.606 0 0 0 4.604-4.604A4.606 4.606 0 0 0 11 6.77a4.606 4.606 0 0 0-4.604 4.604z" fill="#fff" stroke="#fff" stroke-width="1.5"/>
</svg>
