<svg width="76" height="50" viewBox="0 0 76 50" fill="none" xmlns="http://www.w3.org/2000/svg">
    <path d="M68.182 24.773c0-4.11 3.054-7.446 6.818-7.446V3.345C75 1.498 73.63 0 71.935 0H3.065C1.373 0 0 1.498 0 3.345v13.982c3.764 0 6.818 3.332 6.818 7.446 0 4.111-3.054 7.446-6.818 7.446v13.982c0 1.848 1.373 3.346 3.065 3.346h68.873c1.692 0 3.065-1.498 3.065-3.346V32.22c-3.764 0-6.818-3.332-6.818-7.446h-.003z" fill="#000"/>
    <path d="M16.18 29.12a4.52 4.52 0 0 1-1.728-.324 4.216 4.216 0 0 1-1.38-.936 4.324 4.324 0 0 1-.9-1.416 4.897 4.897 0 0 1-.324-1.8c0-.648.104-1.24.312-1.776.216-.536.516-1 .9-1.392.392-.4.852-.704 1.38-.912a4.553 4.553 0 0 1 1.74-.324c.712 0 1.352.14 1.92.42.576.272 1.044.66 1.404 1.164.368.496.592 1.08.672 1.752h-1.8c-.104-.616-.356-1.08-.756-1.392-.4-.32-.876-.48-1.428-.48-.488 0-.92.116-1.296.348-.368.232-.656.568-.864 1.008-.208.432-.312.956-.312 1.572 0 .624.104 1.164.312 1.62.216.448.512.796.888 1.044.376.24.808.36 1.296.36.52 0 .98-.156 1.38-.468.4-.312.66-.776.78-1.392H20.2a3.971 3.971 0 0 1-.708 1.764 3.72 3.72 0 0 1-1.404 1.152c-.568.272-1.204.408-1.908.408zM25.036 29.12a4.77 4.77 0 0 1-1.776-.324 4.256 4.256 0 0 1-1.404-.912c-.392-.4-.7-.872-.924-1.416a4.965 4.965 0 0 1-.324-1.824c0-.88.188-1.648.564-2.304a3.976 3.976 0 0 1 1.56-1.548c.672-.368 1.436-.552 2.292-.552.872 0 1.64.184 2.304.552a3.976 3.976 0 0 1 1.56 1.548c.384.664.576 1.436.576 2.316 0 .656-.112 1.26-.336 1.812a4.137 4.137 0 0 1-.924 1.416c-.392.392-.86.696-1.404.912a4.677 4.677 0 0 1-1.764.324zm-.012-1.464c.504 0 .948-.128 1.332-.384.384-.256.684-.608.9-1.056.224-.456.336-.984.336-1.584 0-.592-.108-1.108-.324-1.548a2.435 2.435 0 0 0-.9-1.02c-.384-.24-.832-.36-1.344-.36-.504 0-.948.12-1.332.36-.384.24-.684.58-.9 1.02-.208.432-.312.948-.312 1.548 0 .608.108 1.14.324 1.596.216.448.516.8.9 1.056a2.38 2.38 0 0 0 1.32.372zM33.793 29.12c-1.232 0-2.156-.336-2.772-1.008-.608-.68-.912-1.668-.912-2.964V20.36h1.848v5.112c0 .752.164 1.304.492 1.656.328.352.78.528 1.356.528.576 0 1.028-.176 1.356-.528.328-.352.492-.9.492-1.644V20.36h1.848v4.812c0 1.28-.308 2.26-.924 2.94-.616.672-1.544 1.008-2.784 1.008zM38.368 29v-8.64h4.104c.64 0 1.188.112 1.644.336.464.224.82.536 1.068.936.256.4.384.868.384 1.404 0 .536-.128 1.008-.384 1.416a2.63 2.63 0 0 1-1.08.96c-.456.224-1 .336-1.632.336h-2.64v-1.416h2.544c.424 0 .752-.116.984-.348.24-.24.36-.552.36-.936s-.12-.692-.36-.924c-.232-.232-.56-.348-.984-.348h-2.16V29h-1.848zM50.331 29.12a4.77 4.77 0 0 1-1.776-.324 4.256 4.256 0 0 1-1.404-.912c-.392-.4-.7-.872-.924-1.416a4.965 4.965 0 0 1-.324-1.824c0-.88.188-1.648.564-2.304a3.976 3.976 0 0 1 1.56-1.548c.672-.368 1.436-.552 2.292-.552.872 0 1.64.184 2.304.552a3.976 3.976 0 0 1 1.56 1.548c.384.664.576 1.436.576 2.316 0 .656-.112 1.26-.336 1.812a4.137 4.137 0 0 1-.924 1.416c-.392.392-.86.696-1.404.912a4.677 4.677 0 0 1-1.764.324zm-.012-1.464c.504 0 .948-.128 1.332-.384.384-.256.684-.608.9-1.056.224-.456.336-.984.336-1.584 0-.592-.108-1.108-.324-1.548a2.435 2.435 0 0 0-.9-1.02c-.384-.24-.832-.36-1.344-.36-.504 0-.948.12-1.332.36-.384.24-.684.58-.9 1.02-.208.432-.312.948-.312 1.548 0 .608.108 1.14.324 1.596.216.448.516.8.9 1.056a2.38 2.38 0 0 0 1.32.372zM55.477 29v-8.64h2.389l3.84 7.632-.589.144V20.36h1.8V29H60.53l-3.84-7.632.589-.144V29h-1.8z" fill="#fff"/>
</svg>
