<?xml version="1.0" encoding="utf-8"?>
<!-- Generator: Adobe Illustrator 24.0.2, SVG Export Plug-In . SVG Version: 6.00 Build 0)  -->
<svg version="1.1" id="Layer_1" xmlns="http://www.w3.org/2000/svg" xmlns:xlink="http://www.w3.org/1999/xlink" x="0px" y="0px"
	 viewBox="0 0 150 143.8" style="enable-background:new 0 0 150 143.8;" xml:space="preserve">
<style type="text/css">
	.st0{opacity:0.21;enable-background:new    ;}
	.st1{enable-background:new    ;}
	.st2{fill:#FFFFFF;}
</style>
<title>quick2</title>
<image style="overflow:visible;" width="3000" height="3000" xlink:href="A6D74323.jpeg"  transform="matrix(4.982114e-02 0 0 4.982114e-02 0.2683 -2.8317)">
</image>
<rect x="-0.4" y="-3.3" class="st0" width="150.8" height="150.5"/>
<g class="st1">
	<path class="st2" d="M24.5,56.1c0.9-0.7,1.6-1.2,2.1-1.5c0.6-0.4,1.2-0.6,2-0.6c0.6,0,1.1,0.1,1.5,0.2c0.5,0.1,0.9,0.3,1.2,0.6
		c0.4,0.3,0.6,0.7,0.8,1.3c0.2,0.5,0.3,1.2,0.3,2.1c0,1.3-0.3,2.6-0.8,3.8s-1.2,2.3-1.9,3.4c0.1,0.1,0.2,0.2,0.3,0.2
		c0.1,0,0.1,0,0.2-0.1c0.1,0,0.1-0.1,0.2-0.1c1-0.7,1.9-1.4,2.7-2.2c0.9-0.8,1.6-1.6,2.2-2.6c0.2-0.3,0.4-0.6,0.7-0.9
		c0.2-0.3,0.5-0.4,0.7-0.4S37,59.5,37,60c0,0.4,0,0.6-0.1,0.8s-0.2,0.4-0.3,0.6c-0.5,0.8-1,1.6-1.7,2.4c-0.7,0.8-1.4,1.6-2.2,2.3
		S31,67.4,30,67.9c-0.9,0.5-1.9,0.7-3,0.7c-0.5,0-0.9,0.1-1.3,0.3c-0.4,0.2-0.8,0.3-1.3,0.3s-1-0.1-1.4-0.4c-0.5-0.2-0.7-0.6-0.7-1
		c0-0.3,0.1-0.5,0.3-0.7c0.2-0.2,0.4-0.3,0.7-0.3c0.7,0,1.4-0.3,2.1-0.9s1.3-1.4,1.9-2.3c0.6-0.9,1-1.9,1.4-3s0.5-2.1,0.5-3
		c0-0.7-0.1-1.3-0.3-1.9c-0.8,0.1-1.7,0.5-2.4,1.1c-0.8,0.6-1.5,1.3-2.2,2.1s-1.3,1.7-1.8,2.7s-1,1.9-1.3,2.8
		c-0.7,2-1.3,4.1-1.7,6.2c-0.4,2.1-0.7,4.2-0.6,6.4c0,0.4,0,0.7,0,1.1s0,0.7,0,1.1c0,0.8-0.3,1.2-0.9,1.2c-0.3,0-0.6-0.1-0.9-0.2
		s-0.6-0.3-0.8-0.5c-0.2-0.2-0.4-0.4-0.6-0.7c-0.2-0.3-0.2-0.5-0.2-0.8c0-0.2,0-0.5,0-0.8s0-0.5,0-0.7v-1.4c0-1.4,0.1-2.8,0.2-4.1
		c0.1-1.4,0.4-2.7,0.7-4c0.2-0.8,0.5-1.7,0.8-2.7c0.3-0.9,0.7-1.9,1-2.8c0.4-0.9,0.7-1.9,1.1-2.8c0.4-0.9,0.7-1.8,1-2.6
		c0.1-0.3,0.2-0.6,0.3-0.9c0-0.3,0.1-0.7,0.3-0.9c0.1-0.3,0.4-0.5,0.8-0.7s0.9-0.3,1.7-0.3c0.3,0,0.6,0.1,0.9,0.2
		c0.2,0.1,0.4,0.4,0.4,0.8c0,0.2,0,0.5-0.1,0.8C24.6,55.3,24.6,55.7,24.5,56.1z"/>
</g>
<g class="st1">
	<path class="st2" d="M50,59.4c-0.2,0.6-0.5,1.2-0.9,1.8c-0.4,0.7-0.7,1.3-1.2,1.9c-0.4,0.6-0.9,1.3-1.3,1.9
		c-0.5,0.6-0.9,1.1-1.3,1.6c-0.5,0.5-0.9,1-1.5,1.3c-0.5,0.3-1.1,0.5-1.7,0.5c-0.6,0-1.1-0.1-1.5-0.3c-0.4-0.2-0.8-0.5-1.1-0.8
		s-0.5-0.7-0.6-1.2c-0.1-0.4-0.2-0.9-0.2-1.3c0-0.6,0.1-1.1,0.3-1.7c0.2-0.5,0.4-1.1,0.7-1.6s0.6-1,0.9-1.5c0.3-0.5,0.6-1,0.9-1.5
		c0.2-0.4,0.3-0.8,0.3-1s-0.2-0.5-0.5-0.6c-0.3-0.2-0.7-0.3-1.2-0.5s-1-0.3-1.5-0.5c-0.6-0.2-1.1-0.4-1.5-0.7
		c-0.5-0.3-0.9-0.6-1.2-1.1c-0.3-0.4-0.5-1-0.5-1.6s0.2-1.1,0.6-1.5c0.4-0.4,0.9-0.6,1.5-0.6c0.9,0,1.5,0.2,2,0.7s0.7,1.1,0.7,1.7
		c0,0.3,0,0.5-0.1,0.8c0,0.2-0.1,0.5-0.1,0.8c0.6,0.2,1.2,0.5,1.8,0.8s1.2,0.6,1.7,1s1,0.8,1.3,1.2s0.5,0.9,0.5,1.4
		s-0.2,1.1-0.5,1.6s-0.7,1.1-1.1,1.6c-0.4,0.5-0.7,1.1-1.1,1.6c-0.3,0.5-0.5,1.1-0.5,1.7c0,0.1,0.1,0.2,0.2,0.4
		c0.1,0.2,0.3,0.3,0.5,0.3c0.1,0,0.3-0.1,0.4-0.2c0.7-0.3,1.3-0.8,1.9-1.5c0.6-0.7,1.2-1.5,1.7-2.3s1-1.5,1.4-2.1s0.8-0.9,1-0.9
		c0.1,0,0.2,0,0.2,0.1C49.8,59.3,49.9,59.3,50,59.4z M38.9,53c-0.1-0.1-0.1-0.3-0.2-0.6c-0.1-0.3-0.3-0.4-0.6-0.4
		c-0.1,0-0.2,0.1-0.3,0.3s-0.1,0.4-0.1,0.5c0,0.2,0.1,0.4,0.2,0.6c0.1,0.2,0.4,0.3,0.7,0.3c0.1,0,0.2-0.1,0.2-0.3
		C38.8,53.3,38.9,53.1,38.9,53z"/>
</g>
<g class="st1">
	<path class="st2" d="M64.1,57.8c0.3-0.4,0.6-0.5,0.7-0.5c0.2,0,0.3,0.2,0.3,0.7s-0.1,1-0.4,1.5c-0.4,0.9-0.9,1.7-1.5,2.6
		c-0.5,0.9-1.2,1.7-1.8,2.4c-0.7,0.8-1.4,1.5-2.3,2.1c-0.8,0.6-1.7,1.2-2.7,1.6c-0.6,0.2-1.2,0.4-2,0.4c-0.9,0-1.8-0.1-2.6-0.4
		s-1.4-0.7-1.9-1.2s-0.9-1.1-1.2-1.8s-0.4-1.4-0.4-2.2c0-2,0.4-3.8,1.2-5.4s2.2-2.9,4-4c0.6-0.3,1.2-0.6,1.9-0.8s1.4-0.3,2.1-0.3
		c1.2,0,2.1,0.3,2.8,0.8c0.6,0.5,0.9,1.4,0.9,2.7c0,0.2,0,0.4-0.1,0.7c-0.5,1.4-1.3,2.4-2.2,3.1c-1,0.7-2.3,1.1-3.9,1.1
		c-0.3,0-0.7,0-1-0.1c-0.4-0.1-0.7-0.2-1.1-0.2c-0.3,0.5-0.5,1.1-0.6,1.6s-0.2,1.1-0.2,1.7c0,0.9,0.2,1.7,0.7,2.3
		c0.4,0.6,1.1,0.9,1.9,0.9c0.7,0,1.5-0.2,2.2-0.5c0.7-0.4,1.4-0.8,2-1.3s1.2-1.2,1.8-1.9c0.6-0.7,1.1-1.4,1.5-2
		c0.5-0.7,0.9-1.3,1.2-1.9C63.6,58.6,63.9,58.1,64.1,57.8z M58.9,54.2h-0.3c-0.4,0-0.8,0.1-1.3,0.4c-0.5,0.2-0.9,0.6-1.4,0.9
		c-0.4,0.4-0.9,0.8-1.2,1.3c-0.4,0.5-0.7,0.9-0.9,1.4c0.2,0.2,0.4,0.4,0.6,0.6c0.2,0.2,0.5,0.3,1,0.3s1-0.1,1.5-0.4
		c0.5-0.3,0.9-0.7,1.3-1.1c0.4-0.4,0.7-0.9,0.9-1.3c0.2-0.4,0.3-0.8,0.3-1.2C59.4,54.8,59.3,54.5,58.9,54.2z"/>
</g>
<g class="st1">
	<path class="st2" d="M80.8,66.9c1.3-1.2,2.4-2.5,3.3-4c0.9-1.4,1.8-2.8,2.7-4.2c0.2-0.3,0.4-0.4,0.7-0.4c0.2,0,0.4,0.2,0.4,0.6
		c0,0.4-0.2,0.9-0.6,1.4c-0.4,0.6-0.7,1.1-1,1.5c-0.4,0.6-0.8,1.4-1.3,2.2c-0.5,0.9-1.1,1.7-1.7,2.5s-1.2,1.5-1.9,2
		c-0.6,0.6-1.3,0.8-1.9,0.8c-0.3,0-0.7-0.1-1-0.3c-0.3-0.2-0.6-0.5-0.9-0.8s-0.5-0.7-0.7-1.2c-0.2-0.4-0.3-0.9-0.3-1.4
		c0-0.4,0.1-1,0.2-1.7s0.3-1.4,0.5-2.2s0.4-1.5,0.7-2.3c0.2-0.7,0.5-1.4,0.8-1.9l0.8-1.4c-0.7,0.4-1.3,0.9-2,1.6
		c-0.6,0.7-1.2,1.6-1.8,2.5c-0.6,0.9-1,1.9-1.5,2.8c-0.4,1-0.8,1.8-1,2.6C73.2,66,73,66.5,72.6,67c-0.3,0.5-0.8,0.7-1.4,0.7
		c-0.2,0-0.4-0.1-0.6-0.2s-0.3-0.3-0.4-0.5s-0.2-0.5-0.3-0.7c0.1-0.1,0.1-0.4,0.1-0.6c0-0.5,0.1-1.1,0.2-1.8s0.3-1.4,0.4-2.2
		c0.2-0.8,0.4-1.5,0.6-2.2s0.4-1.3,0.6-1.9c0.1-0.1,0.1-0.3,0.2-0.3c0.1-0.1,0.1-0.2,0.1-0.3s-0.1-0.3-0.2-0.5
		c-0.2,0.2-0.5,0.4-0.7,0.7s-0.5,0.6-0.7,0.9c-0.2,0.3-0.4,0.6-0.6,1c-0.2,0.3-0.3,0.6-0.4,0.8c-0.3,0.6-0.6,1.3-1,2.3
		c-0.4,0.9-0.8,1.9-1.2,2.8c-0.4,0.9-0.8,1.7-1.3,2.4c-0.4,0.7-0.8,1-1.2,1c-0.6,0-1.2-0.2-1.6-0.7c-0.5-0.5-0.7-1.1-0.7-1.8
		c0-0.3,0.1-0.6,0.2-0.9s0.2-0.6,0.4-1c0.4-1,0.8-2.2,1-3.5c0.2-1.3,0.4-2.7,0.4-4.2c0-0.4,0.1-0.8,0.3-1.1c0.2-0.3,0.5-0.6,0.8-0.8
		s0.7-0.4,1.1-0.5s0.8-0.1,1.3-0.1c0.4,0,0.7,0.1,0.9,0.3c0.2,0.2,0.3,0.4,0.3,0.7c0,0.1,0,0.3-0.1,0.6s-0.2,0.5-0.3,0.8
		s-0.2,0.6-0.3,0.9c-0.1,0.3-0.2,0.5-0.2,0.7c0.2,0,0.5-0.2,0.9-0.6c0.4-0.4,0.8-0.8,1.2-1.3c0.4-0.5,0.9-0.9,1.4-1.3
		c0.5-0.4,1-0.6,1.6-0.6c0.4,0,0.7,0.1,1,0.2c0.3,0.1,0.5,0.4,0.6,0.7c0.2,0.3,0.3,0.6,0.4,1s0.1,0.8,0.2,1.2c0,0.1,0,0.3,0,0.4
		c0,0.1,0,0.3,0,0.5c0.4-0.4,0.8-0.8,1.2-1.3c0.4-0.5,0.9-0.9,1.3-1.3c0.5-0.4,1-0.7,1.5-1s1.1-0.4,1.7-0.4c0.3,0,0.6,0.1,0.9,0.3
		c0.2,0.2,0.4,0.4,0.6,0.7c0.1,0.3,0.3,0.5,0.3,0.9c0.1,0.3,0.1,0.6,0.1,0.9c0,0.5-0.1,1-0.2,1.5s-0.3,0.9-0.5,1.4
		c-0.1,0.2-0.3,0.7-0.5,1.3c-0.3,0.6-0.5,1.2-0.8,1.9s-0.5,1.4-0.7,2.1s-0.3,1.2-0.3,1.6s0.1,0.7,0.4,0.7
		C80.5,67.1,80.6,67,80.8,66.9z"/>
</g>
<g class="st1">
	<path class="st2" d="M88.6,66.4c0.4,0,0.8-0.1,1.1-0.4c0.4-0.3,0.7-0.6,1.1-1c0.3-0.4,0.7-0.8,1-1.3c0.3-0.5,0.6-0.9,0.9-1.3
		c0.2-0.2,0.4-0.6,0.7-1c0.3-0.4,0.5-0.8,0.8-1.1c0.3-0.4,0.5-0.7,0.8-1s0.5-0.4,0.6-0.4c0.2,0,0.3,0,0.4,0.1s0.2,0.2,0.2,0.4
		c0,0.1,0,0.2-0.1,0.4s-0.1,0.3-0.2,0.4c-0.4,0.7-0.8,1.5-1.4,2.4s-1.2,1.8-1.8,2.7c-0.7,0.9-1.3,1.6-2.1,2.2
		c-0.7,0.6-1.4,0.9-2.1,0.9c-0.4,0-0.8-0.1-1.1-0.3c-0.4-0.2-0.7-0.5-1-0.8s-0.5-0.7-0.7-1.1s-0.3-0.8-0.3-1.2
		c0-0.8,0.1-1.6,0.2-2.4c0.2-0.8,0.4-1.6,0.7-2.4c0.3-0.8,0.6-1.6,1-2.3s0.8-1.4,1.3-2.1c0.3-0.4,0.7-0.8,1.1-1.1s0.9-0.4,1.5-0.4
		c0.3,0,0.6,0.1,0.8,0.2c0.2,0.1,0.3,0.4,0.3,0.7s-0.1,0.6-0.3,1c-0.2,0.4-0.4,0.7-0.5,1c-0.6,1.1-1.2,2.3-1.6,3.5
		c-0.5,1.2-0.9,2.4-1.2,3.7c-0.1,0.2-0.1,0.4-0.2,0.7c-0.1,0.2-0.1,0.5-0.1,0.7C88.3,65.9,88.4,66.1,88.6,66.4z M94.5,51.2
		c0,0.1,0,0.1,0,0.2c0,0.1,0,0.1,0,0.2c0,0.5-0.2,1-0.6,1.3c-0.4,0.4-0.9,0.5-1.4,0.5c-0.6,0-1.1-0.2-1.5-0.5s-0.6-0.7-0.6-1.2
		s0.2-0.9,0.7-1.2c0.4-0.3,0.9-0.5,1.3-0.5c0.5,0,0.9,0.1,1.2,0.4S94.2,50.9,94.5,51.2z"/>
	<path class="st2" d="M105.4,66.8c0.7-0.4,1.3-0.9,1.9-1.5c0.6-0.7,1.1-1.4,1.6-2.2s1-1.5,1.5-2.3c0.5-0.7,1-1.3,1.5-1.8
		c0.1-0.1,0.2-0.2,0.4-0.2c0.2,0,0.4,0.1,0.6,0.3c-0.1,0.2-0.1,0.3-0.2,0.5s-0.1,0.4-0.3,0.6c-0.8,1.1-1.6,2.3-2.4,3.4
		s-1.6,2.2-2.4,3.4c-0.3,0.4-0.7,0.7-1.2,1s-0.9,0.4-1.4,0.4c-0.8,0-1.4-0.3-1.8-0.8c-0.4-0.6-0.8-1.3-1.1-2.1l-0.3-0.8
		c-0.3,0.3-0.7,0.7-1.1,1.1s-0.8,0.8-1.2,1.1c-0.4,0.3-0.9,0.6-1.3,0.9c-0.4,0.2-0.9,0.3-1.3,0.3c-1,0-1.9-0.4-2.5-1.1
		s-0.9-1.6-0.9-2.7c0-1.2,0.2-2.5,0.5-3.8c0.4-1.3,0.8-2.5,1.4-3.6s1.2-1.9,1.9-2.6c0.7-0.7,1.4-1,2-1c0.4,0,0.7,0.1,0.9,0.3
		c0.2,0.2,0.4,0.4,0.4,0.7s-0.1,0.6-0.3,0.9c-0.2,0.3-0.3,0.6-0.5,0.9c-0.7,1.5-1.4,2.9-2,4.3c-0.7,1.4-1.1,2.8-1.4,4.4
		c-0.1,0.2-0.1,0.4-0.1,0.5c0,0.3,0.2,0.6,0.5,0.8c0.4-0.1,0.7-0.2,1-0.4c0.3-0.2,0.5-0.3,0.8-0.5c0.2-0.2,0.5-0.4,0.7-0.6
		s0.5-0.4,0.8-0.6c0.8-0.5,1.4-1.1,1.8-1.9c0.4-0.7,0.7-1.5,1-2.3c0.2-0.6,0.4-1.3,0.7-2c0.3-0.7,0.7-1.4,1.1-2s0.9-1.1,1.4-1.5
		s1.1-0.6,1.7-0.6c0.3,0,0.5,0.1,0.7,0.2c0.2,0.2,0.3,0.4,0.3,0.6c0,0.2,0,0.4-0.1,0.6c-0.1,0.2-0.1,0.4-0.2,0.5l-1.1,2.4
		c-0.5,1.1-1,2.2-1.4,3.3s-0.7,2.3-0.9,3.5c0,0.1-0.1,0.3-0.1,0.4s0,0.3,0,0.4C105.1,66.1,105.2,66.5,105.4,66.8z"/>
	<path class="st2" d="M127.8,66.9c1.3-1.2,2.4-2.5,3.3-4c0.9-1.4,1.8-2.8,2.7-4.2c0.2-0.3,0.4-0.4,0.7-0.4c0.2,0,0.4,0.2,0.4,0.6
		c0,0.4-0.2,0.9-0.6,1.4c-0.4,0.6-0.7,1.1-1,1.5c-0.4,0.6-0.8,1.4-1.3,2.2c-0.5,0.9-1.1,1.7-1.7,2.5c-0.6,0.8-1.2,1.5-1.9,2
		c-0.6,0.6-1.3,0.8-1.9,0.8c-0.3,0-0.7-0.1-1-0.3c-0.3-0.2-0.6-0.5-0.9-0.8s-0.5-0.7-0.7-1.2c-0.2-0.4-0.3-0.9-0.3-1.4
		c0-0.4,0.1-1,0.2-1.7s0.3-1.4,0.5-2.2s0.4-1.5,0.7-2.3c0.2-0.7,0.5-1.4,0.8-1.9l0.8-1.4c-0.7,0.4-1.3,0.9-2,1.6
		c-0.6,0.7-1.2,1.6-1.8,2.5c-0.6,0.9-1,1.9-1.5,2.8c-0.4,1-0.8,1.8-1,2.6c-0.1,0.4-0.3,0.9-0.7,1.4c-0.3,0.5-0.8,0.7-1.4,0.7
		c-0.2,0-0.4-0.1-0.6-0.2s-0.3-0.3-0.4-0.5s-0.2-0.5-0.3-0.7c-0.1-0.3-0.1-0.5-0.1-0.8c0-0.5,0.1-1.1,0.2-1.8s0.3-1.4,0.4-2.2
		c0.2-0.8,0.4-1.5,0.6-2.2s0.4-1.3,0.6-1.9c0.1-0.1,0.1-0.3,0.2-0.3c0.1-0.1,0.1-0.2,0.1-0.3s-0.1-0.3-0.2-0.5
		c-0.2,0.2-0.5,0.4-0.7,0.7s-0.5,0.6-0.7,0.9c-0.2,0.3-0.4,0.6-0.6,1c-0.2,0.3-0.3,0.6-0.4,0.8c-0.3,0.6-0.6,1.3-1,2.3
		c-0.4,0.9-0.8,1.9-1.2,2.8c-0.4,0.9-0.8,1.7-1.3,2.4c-0.4,0.7-0.8,1-1.2,1c-0.6,0-1.2-0.2-1.6-0.7c-0.5-0.5-0.7-1.1-0.7-1.8
		c0-0.3,0.1-0.6,0.2-0.9s0.2-0.6,0.4-1c0.4-1,0.8-2.2,1-3.5s0.4-2.7,0.4-4.2c0-0.4,0.1-0.8,0.3-1.1c0.2-0.3,0.5-0.6,0.8-0.8
		s0.7-0.4,1.1-0.5s0.8-0.1,1.3-0.1c0.4,0,0.7,0.1,0.9,0.3c0.2,0.2,0.3,0.4,0.3,0.7c0,0.1,0,0.3-0.1,0.6s-0.2,0.5-0.3,0.8
		s-0.2,0.6-0.3,0.9c-0.1,0.3-0.2,0.5-0.2,0.7c0.2,0,0.5-0.2,0.9-0.6c0.4-0.4,0.8-0.8,1.2-1.3c0.4-0.5,0.9-0.9,1.4-1.3
		c0.5-0.4,1-0.6,1.6-0.6c0.4,0,0.7,0.1,1,0.2c0.3,0.1,0.5,0.4,0.6,0.7c0.2,0.3,0.3,0.6,0.4,1s0.1,0.8,0.2,1.2c0,0.1,0,0.3,0,0.4
		c0,0.1,0,0.3,0,0.5c0.4-0.4,0.8-0.8,1.2-1.3c0.4-0.5,0.9-0.9,1.3-1.3c0.5-0.4,1-0.7,1.5-1s1.1-0.4,1.7-0.4c0.3,0,0.6,0.1,0.9,0.3
		c0.2,0.2,0.4,0.4,0.6,0.7c0.1,0.3,0.3,0.5,0.3,0.9c0.1,0.3,0.1,0.6,0.1,0.9c0,0.5-0.1,1-0.2,1.5c-0.1,0.5-0.3,0.9-0.5,1.4
		c-0.1,0.2-0.3,0.7-0.5,1.3c-0.3,0.6-0.5,1.2-0.8,1.9s-0.5,1.4-0.7,2.1S127,66,127,66.4s0.1,0.7,0.4,0.7
		C127.4,67.1,127.6,67,127.8,66.9z"/>
</g>
<g class="st1">
	<path class="st2" d="M63.9,89.4c0.5,0.5,0.8,1,1.1,1.5c0.3,0.5,0.4,1.1,0.4,1.7c0,0.5-0.1,1.1-0.2,1.7s-0.4,1.4-0.7,2.1
		c-0.3,0.7-0.7,1.5-1.1,2.2c-0.4,0.7-0.9,1.4-1.5,2c-0.5,0.6-1.1,1.1-1.8,1.4c-0.7,0.4-1.4,0.5-2.1,0.5c-0.5,0-1-0.1-1.5-0.3
		c-0.5-0.2-0.9-0.4-1.3-0.8l-0.1,0.3c-0.1,0.2-0.1,0.3-0.3,0.4c-0.1,0.1-0.3,0.1-0.4,0.1c-0.4,0-0.8-0.1-1.1-0.4s-0.5-0.6-0.7-1
		s-0.3-0.8-0.3-1.3c-0.1-0.4-0.1-0.8-0.1-1.2c0-0.1,0-0.2,0-0.3c0-0.1,0-0.2,0-0.3c0.5-3.5,1.3-6.8,2.6-10s2.8-6.3,4.7-9.3
		c0.3-0.3,0.6-0.6,0.8-0.9c0.3-0.3,0.7-0.4,1.3-0.4c1,0,1.5,0.4,1.5,1.3c0,0.6-0.3,1.4-0.9,2.2c-0.5,0.7-0.9,1.4-1.2,2.1
		s-0.7,1.3-1,2s-0.6,1.3-0.9,2c-0.3,0.7-0.5,1.4-0.8,2.2c0.4-0.2,0.8-0.4,1.3-0.5s0.9-0.2,1.4-0.2s0.9,0.1,1.4,0.2
		C62.8,88.6,63.3,88.9,63.9,89.4z M62.1,91.9c0.1-0.3,0.1-0.5,0.1-0.7s-0.1-0.5-0.3-0.8s-0.5-0.5-1-0.5c-0.2,0-0.4,0-0.6,0.1
		c-0.2,0.1-0.4,0.2-0.5,0.3c-0.8,0.5-1.5,1-2,1.7s-1,1.4-1.3,2.2c-0.3,0.8-0.6,1.7-0.7,2.6c-0.2,0.9-0.3,1.8-0.4,2.7
		c0.5,0.5,1,0.8,1.5,0.8c0.6,0,1.2-0.3,1.8-0.9s1.1-1.4,1.6-2.2c0.5-0.9,0.9-1.8,1.2-2.8C61.7,93.4,61.9,92.6,62.1,91.9z"/>
</g>
<g class="st1">
	<path class="st2" d="M82,91.7c0.3-0.4,0.6-0.5,0.7-0.5c0.2,0,0.3,0.2,0.3,0.7s-0.1,1-0.4,1.5c-0.4,0.9-0.9,1.7-1.5,2.6
		c-0.5,0.9-1.2,1.7-1.8,2.4c-0.7,0.8-1.4,1.5-2.3,2.1s-1.7,1.2-2.7,1.6c-0.6,0.2-1.2,0.4-2,0.4c-0.9,0-1.8-0.1-2.6-0.4
		c-0.8-0.3-1.4-0.7-1.9-1.2S67,99.7,66.7,99s-0.4-1.4-0.4-2.2c0-2,0.4-3.8,1.2-5.4s2.2-2.9,4-4c0.6-0.3,1.2-0.6,1.9-0.8
		c0.7-0.2,1.4-0.3,2.1-0.3c1.2,0,2.1,0.3,2.8,0.8c0.6,0.5,0.9,1.4,0.9,2.7c0,0.2,0,0.4-0.1,0.7c-0.5,1.4-1.3,2.4-2.2,3.1
		c-1,0.7-2.3,1.1-3.9,1.1c-0.3,0-0.7,0-1-0.1c-0.4-0.1-0.7-0.2-1.1-0.2c-0.3,0.5-0.5,1.1-0.6,1.6s-0.2,1.1-0.2,1.7
		c0,1,0.2,1.7,0.7,2.3c0.4,0.6,1.1,0.9,1.9,0.9c0.7,0,1.5-0.2,2.2-0.5c0.7-0.4,1.4-0.8,2-1.3s1.2-1.2,1.8-1.9c0.6-0.7,1.1-1.4,1.5-2
		c0.5-0.7,0.9-1.3,1.2-1.9C81.5,92.5,81.8,92,82,91.7z M76.9,88.1h-0.3c-0.4,0-0.8,0.1-1.3,0.4c-0.5,0.2-0.9,0.6-1.4,0.9
		c-0.4,0.4-0.9,0.8-1.2,1.3c-0.4,0.5-0.7,0.9-0.9,1.4c0.2,0.2,0.4,0.4,0.6,0.6s0.5,0.3,1,0.3s1-0.1,1.5-0.4s0.9-0.7,1.3-1.1
		s0.7-0.9,0.9-1.3c0.2-0.4,0.3-0.8,0.3-1.2C77.4,88.6,77.2,88.4,76.9,88.1z"/>
</g>
<g class="st1">
	<path class="st2" d="M91.4,88.4c0.4-0.9,0.8-1.6,1.1-2.3c0.3-0.6,0.6-1.2,0.9-1.8c0.3-0.5,0.5-1.1,0.8-1.6s0.6-1.1,1.1-1.8
		c0.2-0.4,0.5-0.8,0.9-1.2s0.8-0.6,1.3-0.6c0.3,0,0.6,0.1,0.8,0.3c0.2,0.2,0.3,0.4,0.3,0.7c0,0.3,0,0.6-0.1,0.9s-0.2,0.6-0.3,0.8
		l-1.6,3.7c-0.5,1.1-1,2.2-1.5,3.2c-0.5,1.1-1,2.2-1.4,3.3c-0.5,1.1-0.9,2.2-1.3,3.3c-0.4,1.1-0.7,2.3-1,3.4c0,0.1-0.1,0.3-0.1,0.4
		s0,0.3,0,0.5s0,0.4,0.1,0.7c0.1,0.3,0.3,0.4,0.6,0.4c0.2,0,0.4-0.1,0.7-0.3c0.3-0.2,0.5-0.5,0.8-0.8s0.5-0.7,0.8-1
		c0.3-0.4,0.5-0.7,0.6-0.9c0.5-0.7,0.9-1.4,1.3-2.1s0.8-1.4,1.2-2.1c0.1-0.1,0.2-0.3,0.3-0.5c0.1-0.2,0.3-0.3,0.5-0.3
		s0.4,0.1,0.5,0.2s0.2,0.3,0.2,0.4c0,0.2,0,0.3-0.1,0.5s-0.1,0.3-0.2,0.4C98.2,95,97.7,96,97.2,97s-1,2-1.5,2.9
		c-0.6,0.9-1.2,1.6-1.8,2.3s-1.3,0.9-2.1,0.9c-0.5,0-1-0.1-1.4-0.3c-0.4-0.2-0.8-0.5-1.1-0.8c-0.3-0.3-0.5-0.7-0.8-1.1
		c-0.2-0.4-0.4-0.8-0.5-1.3c-0.4,0.3-0.7,0.6-1.1,0.9c-0.3,0.3-0.7,0.6-1.1,0.9s-0.7,0.5-1.1,0.7s-0.8,0.3-1.3,0.3
		c-1,0-1.9-0.4-2.6-1.2c-0.7-0.8-1-1.8-1-3.1c0-1.1,0.2-2.3,0.7-3.5c0.4-1.2,1-2.3,1.8-3.3s1.7-1.8,2.8-2.4c1.1-0.6,2.2-1,3.5-1
		C89.3,87.8,90.3,88,91.4,88.4z M83.9,99.9C84,99.9,84,99.9,83.9,99.9c0.1,0,0.1,0,0.2,0c0.2,0,0.3,0,0.4,0c0.5-0.3,0.9-0.6,1.4-0.9
		c0.4-0.3,0.9-0.6,1.2-1c0.4-0.3,0.7-0.7,0.9-1.1c0.2-0.4,0.4-0.9,0.5-1.5c0.1-0.4,0.2-0.7,0.3-1.2c0.1-0.4,0.3-0.9,0.5-1.3
		s0.4-0.9,0.6-1.3s0.4-0.9,0.5-1.3c0-0.1,0.1-0.2,0.1-0.2c0-0.1,0-0.2,0-0.3s0-0.2-0.1-0.3c-0.1-0.1-0.3-0.2-0.5-0.2
		c-0.4,0-0.8,0.1-1.2,0.4c-0.4,0.3-0.7,0.5-1,0.8c-1.2,1-2.2,2.3-3,3.8s-1.2,3-1.2,4.6C83.6,99.3,83.7,99.6,83.9,99.9z"/>
</g>
</svg>
