<svg id="Layer_1" data-name="Layer 1" xmlns="http://www.w3.org/2000/svg" viewBox="0 0 99.53 53.18"><defs><style>.cls-1{fill:#466eb0;}</style></defs><title>quick3</title><g id="Layer_2" data-name="Layer 2"><path class="cls-1" d="M57.47,66.93c-.4,24.08-35.63,24.08-36,0C21.84,42.84,57.07,42.85,57.47,66.93Z" transform="translate(-15.23 -38.41)"/><path class="cls-1" d="M83.52,56.47c-.4,24.09-35.63,24.09-36,0C47.89,32.39,83.12,32.39,83.52,56.47Z" transform="translate(-15.23 -38.41)"/><path class="cls-1" d="M110.67,66.93c-.4,24.08-35.63,24.08-36,0C75.05,42.84,110.27,42.85,110.67,66.93Z" transform="translate(-15.23 -38.41)"/><path class="cls-1" d="M41.6,80.28c-.07,11.29-25.55,13-26.35,0C14.49,67.85,41.53,69,41.6,80.28Z" transform="translate(-15.23 -38.41)"/><path class="cls-1" d="M114.46,80.18c0,11.78-27.78,11.78-27.74,0S114.5,68.4,114.46,80.18Z" transform="translate(-15.23 -38.41)"/><path class="cls-1" d="M114.76,80.07c-.11,13.52-26.1,10.52-26.75.1C87.86,68.83,115.12,67.94,114.76,80.07Z" transform="translate(-15.23 -38.41)"/><path class="cls-1" d="M20.75,85.8c-7.75,6.79,70.57,7.12,84.39,3.51,22-5.75-45.14-25-51.79-26.67a1.22,1.22,0,0,0-1,.2Z" transform="translate(-15.23 -38.41)"/><path class="cls-1" d="M21.51,68.73" transform="translate(-15.23 -38.41)"/><path class="cls-1" d="M110.31,70.4s-.63,2.16.75,3.2-2.39-.23-2.39-.23Z" transform="translate(-15.23 -38.41)"/><path class="cls-1" d="M21.85,71a1.4,1.4,0,0,1-.62,1.44c-.84.54.86,1.61.86,1.61l1.43-2.1Z" transform="translate(-15.23 -38.41)"/><path class="cls-1" d="M46.63,50.23s1.65.47,2.12-.75S50.18,52,50.18,52l-3.31,1Z" transform="translate(-15.23 -38.41)"/><path class="cls-1" d="M82.3,49.56a1.94,1.94,0,0,0,2.37,1c1.62-.56-.34,2.74-.34,2.74L80.47,52Z" transform="translate(-15.23 -38.41)"/></g></svg>