<?xml version="1.0" encoding="utf-8"?>
<!-- Generator: Adobe Illustrator 24.0.2, SVG Export Plug-In . SVG Version: 6.00 Build 0)  -->
<svg version="1.1" id="Layer_1" xmlns="http://www.w3.org/2000/svg" xmlns:xlink="http://www.w3.org/1999/xlink" x="0px" y="0px"
	 viewBox="0 0 134.3 131.9" style="enable-background:new 0 0 134.3 131.9;" xml:space="preserve">
<style type="text/css">
	.st0{fill:#A0ABBA;}
	.st1{fill:#D8D8D8;}
	.st2{fill:#F4F4F4;}
	.st3{fill:#5A5A59;}
	.st4{fill:#FFFFFF;}
	.st5{fill:#34312E;}
	.st6{fill:#8D99AA;}
</style>
<title>quick5</title>
<g id="Layer_2_1_">
	<rect class="st0" width="134.3" height="131.9"/>
</g>
<g id="Layer_1_1_">
	<path class="st1" d="M74,102.6l-0.6,0.3c-0.8,0.2-1.6-0.2-1.8-1c0,0,0-0.1,0-0.1l-0.1-0.8c-0.1-0.4-0.3-0.8-0.7-0.9l-14.4-8.9
		c-0.5-0.4-1.2-0.3-1.6,0.2l-4.8,7.7c-0.2,0.3-0.1,0.7,0.1,1l1.5,2.4c0.3,0.4,0.2,0.9-0.1,1.2c-0.2,0.2-0.5,0.2-0.8,0.2l-2.5-0.5
		c-0.4-0.1-0.8,0.1-1,0.4l-5.9,9.6c-0.2,0.6,0,1.2,0.6,1.5l14,8.6c0.3,0.2,0.7,0.3,1.1,0.2l1.2-0.4c0.8-0.2,1.6,0.3,1.8,1
		c0,0,0,0.1,0,0.1l0.1,1.1c0,0.4,0.3,0.8,0.7,1l34.9,21.6c0.5,0.4,1.2,0.3,1.6-0.2l13.7-22c0.2-0.6,0-1.2-0.6-1.5l-35.2-21.7
		C74.9,102.5,74.4,102.5,74,102.6z"/>
	<path class="st2" d="M83.1,74l-0.4,0.5c-0.6,0.5-1.5,0.5-2-0.1c0,0-0.1-0.1-0.1-0.1l-0.4-0.7c-0.2-0.3-0.6-0.6-1-0.6l-16.7-2
		c-0.6-0.1-1.2,0.2-1.3,0.8l-1.1,9c0,0.4,0.2,0.7,0.5,0.9l2.3,1.5c0.4,0.2,0.6,0.7,0.4,1.2c-0.1,0.3-0.4,0.5-0.7,0.5l-2.4,0.7
		c-0.4,0.1-0.7,0.4-0.8,0.8l-1.4,11.2c-0.1,0.5,0.4,1,1.1,1.1l16.4,2c0.4,0.1,0.8-0.1,1.1-0.3l0.9-0.9c0.6-0.5,1.5-0.4,2,0.2
		c0,0,0.1,0.1,0.1,0.1l0.6,1c0.2,0.4,0.6,0.6,1,0.6l40.8,4.9c0.6,0.1,1.2-0.2,1.3-0.8l3.1-25.6c0-0.6-0.5-1.1-1.1-1.1l-41-4.9
		C83.8,73.6,83.4,73.7,83.1,74z"/>
	<path class="st3" d="M71.8,88.6l-1.1-0.1l0.6-4.8l0,0l-1.5,0.7l0.1-1l1.6-0.8l1,0.1L71.8,88.6z"/>
	<path class="st3" d="M73.6,85.8c0.2-1.9,1.2-2.9,2.7-2.7s2.2,1.4,1.9,3.3s-1.2,2.9-2.7,2.7S73.3,87.8,73.6,85.8z M77.1,86.3
		c0.2-1.4-0.2-2.2-1-2.3s-1.3,0.6-1.5,2s0.2,2.2,1,2.3S76.9,87.7,77.1,86.3z"/>
	<path class="st3" d="M79.4,85c0-0.7,0.6-1.3,1.3-1.3c0.1,0,0.1,0,0.2,0c0.7,0,1.3,0.7,1.2,1.4c0,0.1,0,0.2,0,0.2
		c-0.1,0.9-0.7,1.4-1.5,1.3c-0.7-0.1-1.3-0.7-1.2-1.4C79.4,85.1,79.4,85.1,79.4,85z M84.4,84.2l0.8,0.1l-4.8,5.3l-0.8-0.1L84.4,84.2
		z M81.2,85.2c0.1-0.5-0.1-0.9-0.4-0.9s-0.6,0.3-0.7,0.8s0.1,0.9,0.4,0.9S81.2,85.8,81.2,85.2L81.2,85.2z M82.9,88.6
		c0-0.7,0.6-1.3,1.3-1.3c0.7,0,1.3,0.6,1.3,1.3c0,0.1,0,0.2,0,0.3c-0.1,0.9-0.7,1.4-1.5,1.3c-0.7-0.1-1.2-0.8-1.1-1.5
		C82.9,88.7,82.9,88.6,82.9,88.6L82.9,88.6z M84.8,88.8c0.1-0.5-0.1-0.9-0.4-0.9s-0.6,0.3-0.7,0.8s0.1,0.9,0.4,0.9
		S84.7,89.3,84.8,88.8L84.8,88.8z"/>
	<path class="st3" d="M88.7,88.4c0-1.2,1-2.1,2.2-2c0.1,0,0.2,0,0.3,0c1,0,1.8,0.8,1.7,1.8c0,0,0,0,0,0l-1-0.1
		c0-0.5-0.4-0.8-0.8-0.8c-0.7-0.1-1.2,0.4-1.3,1.3s0.3,1.5,0.9,1.6c0.4,0.1,0.9-0.2,1-0.6l1,0.1c-0.2,0.9-1.1,1.5-2.1,1.3
		c0,0,0,0,0,0c-1.1-0.1-2-1.1-1.9-2.2C88.6,88.6,88.6,88.5,88.7,88.4z"/>
	<path class="st3" d="M93.3,89c0.2-1.2,1.3-2,2.5-1.8c1.2,0.2,2,1.3,1.8,2.5c-0.2,1.2-1.2,2-2.4,1.8c-1.1-0.1-2-1.1-1.9-2.2
		C93.3,89.2,93.3,89.1,93.3,89z M96.6,89.4c0.1-0.8-0.2-1.5-0.9-1.6s-1.2,0.5-1.3,1.3s0.2,1.5,0.9,1.6S96.5,90.2,96.6,89.4z"/>
	<path class="st3" d="M101.6,87.8l1,0.1l-0.5,4.3l-1-0.1l0.1-0.8l0,0c-0.3,0.5-0.9,0.8-1.4,0.7c-0.8-0.1-1.4-0.8-1.3-1.6
		c0-0.1,0-0.1,0-0.2l0.3-2.8l1,0.1l-0.3,2.6c-0.1,0.4,0.2,0.9,0.6,1c0,0,0.1,0,0.1,0c0.5,0.1,1-0.3,1.1-0.8c0,0,0-0.1,0-0.1
		L101.6,87.8z"/>
	<path class="st3" d="M103.7,88l1,0.1l-0.1,0.7h0.1c0.3-0.5,0.8-0.7,1.4-0.6c1,0.1,1.8,1,1.6,2.5s-1.1,2.2-2.1,2
		c-0.5,0-1-0.4-1.2-0.9l0,0l-0.3,2.3l-1.1-0.1L103.7,88z M105.3,91.8c0.7,0.1,1.1-0.5,1.2-1.3s-0.2-1.4-0.9-1.5s-1.1,0.4-1.2,1.3
		S104.6,91.8,105.3,91.8z"/>
	<path class="st3" d="M108.3,90.8c0.2-1.2,1.3-2,2.5-1.8s2,1.3,1.8,2.5c-0.2,1.2-1.2,1.9-2.4,1.8c-1.1-0.1-2-1.1-1.9-2.2
		C108.2,90.9,108.3,90.8,108.3,90.8z M111.5,91.1c0.1-0.8-0.2-1.5-0.9-1.6s-1.2,0.5-1.3,1.3s0.2,1.5,0.9,1.6S111.4,92,111.5,91.1
		L111.5,91.1z"/>
	<path class="st3" d="M114.2,93.7l-1.1-0.1l0.5-4.3l1,0.1l-0.1,0.7l0,0c0.3-0.5,0.9-0.7,1.4-0.6c0.8,0,1.4,0.7,1.4,1.5
		c0,0.1,0,0.2,0,0.3l-0.3,2.8l-1-0.1l0.3-2.6c0.1-0.5-0.2-0.9-0.7-1c0,0-0.1,0-0.1,0c-0.5-0.1-1,0.3-1.1,0.8c0,0,0,0.1,0,0.1
		L114.2,93.7z"/>
	<path class="st4" d="M93,64.8l-0.3-0.1c-1.4,0.5-2.6,1.2-3.8,2.2c-0.5,0.3-1.7,1.3-2,1s1-0.9,0.6-1.4s-1.1,0.9-1.9,0.8
		s1.1-0.9,0.8-1.8s-1.2,0.5-1.7,0.7s-0.5-0.2,1.9-2.4c0.7-0.7,1.6-1.1,2.6-1.2c-0.4-0.3-0.8-0.6-1.3-1c-2.4-0.3-4.6,1.1-5.1,1.2
		s-2,0.9-2.2,0.5s1.2-0.7,0.9-1.3s-1.2,0.6-2.1,0.4s1.3-0.7,1.2-1.6s-1.3,0.2-1.8,0.3s-0.5-0.3,2.4-1.9c1.3-0.7,2.9-0.8,4.2-0.1
		c-0.5-0.7-0.9-1.4-1.2-2.2c-1.9-0.4-3.6-1.2-5-2.5c-0.4-0.4-0.4-1,0-1.4c0,0,0,0,0,0l4-3.6c0.4-0.4,0.4-1,0-1.4
		c-0.1-0.1-0.2-0.2-0.3-0.2l-3.1-1l-1,0.9l-0.3-1.4l-1.8-0.6c-0.5-0.2-0.7-0.6-0.6-1.1c0.9-4.5,4.7-7.8,9.3-8.2l-0.6-4.8
		c-0.2-0.5,0-1.1,0.5-1.3s1.1,0,1.3,0.5c0.1,0.2,0.1,0.4,0.1,0.6L87,33l0.8-0.9c0.1-0.2,0.4-0.2,0.5-0.1c0.2,0.1,0.2,0.4,0.1,0.5
		c0,0,0,0,0,0l-1.3,1.5l0.3,2.3c1.1,0.1,2.2,0.4,3.2,0.9c0.1-0.1,0.2-0.2,0.3-0.3c0.6-0.3,1.7-0.9,2.2-0.5s0.5,1.4,0.4,2.2
		c0,0.1-0.1,0.3-0.2,0.4c1.5,1.4,2.6,3.2,3,5.2c0.2,1.1,0.3,2.2,0.2,3.4c3,0.5,4.9,3.5,4.9,3.5s1.4,0.8,0.6,1
		c-1.3,0.2-3.2-2.1-5.1-2.8c-0.2-0.1-0.4-0.1-0.6-0.2c-0.2,1-0.6,2-1.1,2.9c-0.2,0.3-0.4,0.6-0.6,0.9c2.4,1.6,6.4,3.2,11.4-0.1
		c2-1.4,4.5-2.1,6.9-1.9l-6.6-32.2c-1.2-5.9-6.9-9.7-12.8-8.5c0,0,0,0,0,0L17.1,25.9c-5.9,1.2-9.7,7-8.5,12.8c0,0,0,0,0,0l7.7,37.4
		c1.2,5.9,6.9,9.7,12.8,8.5c0,0,0,0,0,0l76.3-15.7c3.3-0.7,6.1-2.9,7.5-5.9c-1.2,0-2.4,0.3-3.6,0.7C104.2,65.5,98.5,65.8,93,64.8z"
		/>
	<polygon class="st4" points="96.9,46.5 96.6,47.8 96.4,49.3 99.7,52.4 103.4,51.8 	"/>
	<path class="st4" d="M104.4,69.8L29.9,85.1c-6.5,1.3-12.8-2.9-14.2-9.3L8.3,39.4c-1.3-6.5,2.9-12.8,9.3-14.2L92.2,10
		c6.5-1.3,12.8,2.9,14.2,9.3l7.4,36.3C115.1,62.1,110.9,68.5,104.4,69.8z"/>
	<path class="st5" d="M32.4,53.8c-0.6-2.6,0.6-4.8,3.3-5.3c2.4-0.5,4.2,0.6,4.7,2.8l-2.7,0.6c-0.3-0.9-0.9-1.3-1.5-1.1
		c-0.7,0.1-1.2,1-0.9,2.5c0.3,1.5,1,2.1,1.8,1.9s1-0.7,0.9-1.7l2.7-0.6c0.5,2-0.7,4-2.7,4.4c-0.2,0-0.3,0.1-0.5,0.1
		C35,57.9,33,56.5,32.4,53.8z"/>
	<path class="st5" d="M41.6,51.9c-0.7-2.2,0.5-4.5,2.7-5.2c0.2-0.1,0.4-0.1,0.6-0.1c2.7-0.6,4.6,0.9,5.2,3.5s-0.6,4.8-3.3,5.3
		c-2.2,0.6-4.5-0.7-5.1-2.9C41.6,52.2,41.6,52.1,41.6,51.9z M47.2,50.6c-0.3-1.4-1-2.1-1.8-2c-0.8,0.2-1.1,1.2-0.9,2.5
		c0.3,1.4,1,2.1,1.8,1.9C47.2,53,47.4,52,47.2,50.6z"/>
	<path class="st6" d="M41.2,33.1l1-0.2l0.1,0.7l0,0c0-0.5,0.4-0.9,0.9-1c0.1,0,0.2,0,0.3,0l0.2,0.9c-0.2,0-0.3,0-0.5,0
		c-0.5,0.1-0.8,0.5-0.8,1c0,0,0,0,0,0.1L43,37l-1,0.2L41.2,33.1z"/>
	<path class="st6" d="M44.3,34.6c-0.3-1.1,0.3-2.2,1.3-2.5c0.1,0,0.1,0,0.2-0.1c1-0.2,2,0.4,2.3,1.4c0,0.1,0,0.2,0,0.3l0.1,0.3
		l-2.9,0.6c0.1,0.6,0.6,1,1.2,0.9c0,0,0.1,0,0.1,0c0.3,0,0.6-0.3,0.8-0.6l1-0.2c-0.1,0.8-0.8,1.5-1.6,1.5c-1.1,0.3-2.2-0.4-2.4-1.5
		C44.3,34.8,44.3,34.7,44.3,34.6z M47.2,33.6c-0.1-0.5-0.6-0.9-1.2-0.8c-0.5,0.1-0.9,0.6-0.8,1.2c0,0,0,0,0,0L47.2,33.6z"/>
	<path class="st6" d="M48.5,31.6l1-0.2l0.1,0.7h0.1c0.1-0.5,0.5-0.9,1-1c1-0.2,1.9,0.4,2.2,1.8s-0.3,2.3-1.3,2.5
		c-0.5,0.1-1-0.1-1.3-0.5l0,0l0.4,2.2l-1,0.2L48.5,31.6z M51.1,34.6c0.6-0.1,0.9-0.8,0.7-1.6s-0.6-1.3-1.3-1.1s-0.9,0.7-0.7,1.5
		S50.5,34.7,51.1,34.6L51.1,34.6z"/>
	<path class="st6" d="M53.4,32.8c-0.1-1.1,0.7-2.1,1.8-2.2c1.1-0.1,2.1,0.7,2.2,1.8c0.1,1-0.6,1.9-1.6,2.2c-1.1,0.2-2.1-0.4-2.4-1.5
		C53.5,32.9,53.4,32.8,53.4,32.8z M56.4,32.2c-0.2-0.8-0.6-1.3-1.3-1.2s-0.9,0.8-0.7,1.6s0.6,1.3,1.3,1.2S56.6,32.9,56.4,32.2
		L56.4,32.2z"/>
	<path class="st6" d="M59.6,33.7l-1,0.2l-0.8-4.2l0.9-0.2l0.1,0.7h0.1c0.1-0.5,0.5-0.9,1.1-1c0.7-0.2,1.5,0.3,1.7,1
		c0,0.1,0,0.2,0,0.3l0.5,2.7l-1,0.2l-0.5-2.5c0-0.4-0.4-0.8-0.9-0.7c0,0-0.1,0-0.1,0c-0.5,0.1-0.7,0.6-0.6,1.1c0,0,0,0,0,0.1
		L59.6,33.7z"/>
	<path class="st6" d="M64.1,29.1c-0.4,0.1-0.7,0.3-0.6,0.6s0.2,0.3,0.7,0.4h0.7c0.8,0,1.3,0.3,1.4,0.9c0.2,0.8-0.4,1.5-1.5,1.7
		s-1.8-0.1-2-0.9l1-0.2c0.1,0.3,0.4,0.5,0.9,0.4c0.5-0.1,0.7-0.3,0.7-0.7C65.3,31,65.1,31,64.7,31H64c-0.8,0-1.3-0.3-1.4-0.9
		c-0.2-0.8,0.4-1.4,1.4-1.6c1-0.2,1.7,0.2,1.9,0.9L65,29.5C64.9,29.2,64.5,29,64.1,29.1C64.1,29.1,64.1,29.1,64.1,29.1z"/>
	<path class="st6" d="M66.7,30.1C66.4,29,67,27.9,68,27.6c0.1,0,0.1,0,0.2-0.1c1-0.2,2,0.4,2.3,1.4c0,0.1,0,0.2,0,0.3l0.1,0.3
		l-2.9,0.6c0.1,0.6,0.6,1,1.2,0.9c0,0,0.1,0,0.1,0c0.3,0,0.6-0.3,0.8-0.6l1-0.2c-0.1,0.9-0.8,1.5-1.6,1.6c-1.1,0.2-2.1-0.4-2.4-1.5
		C66.7,30.2,66.7,30.2,66.7,30.1z M69.6,29.1c-0.1-0.5-0.6-0.9-1.1-0.8c-0.5,0.1-0.9,0.6-0.8,1.2c0,0,0,0,0,0L69.6,29.1z M68.1,25.8
		l1-0.2L68.5,27l-0.7,0.2L68.1,25.8z"/>
	<path class="st5" d="M55.8,44.3l2.9-0.6l1.8,8.6l-2.7,0.6l-0.3-1.6h-0.1c-0.1,1.2-1,2.1-2.2,2.3c-1.7,0.4-3.2-0.7-3.6-2.6l-1.2-5.5
		l2.9-0.6l1,4.8c0.2,0.9,0.8,1.3,1.5,1.1c0.7-0.1,1.2-0.8,1.1-1.4c0-0.1,0-0.2-0.1-0.2L55.8,44.3z"/>
	<path class="st5" d="M60.2,43.3l2.8-0.6l0.3,1.5h0.1c0.1-1.1,0.9-1.9,2-2.1c1.7-0.4,3.5,0.6,4.2,3.7c0.7,3.1-0.5,4.7-2.3,5.1
		c-1,0.3-2.1-0.1-2.6-1l0,0l1,4.6l-2.9,0.6L60.2,43.3z M65.8,48.8c0.9-0.2,1.2-1.1,0.9-2.4c-0.3-1.3-1-2-1.8-1.8
		c-0.8,0.2-1.2,1.1-0.9,2.4C64.2,48.3,64.9,49,65.8,48.8z"/>
	<path class="st5" d="M70.6,45.6c-0.6-2.6,0.6-4.8,3.3-5.3c2.7-0.6,4.6,0.9,5.2,3.5s-0.6,4.8-3.3,5.3C73.2,49.7,71.2,48.2,70.6,45.6
		z M76.2,44.4c-0.3-1.4-1-2.1-1.8-2c-0.8,0.2-1.2,1.2-0.9,2.5c0.3,1.4,1,2.1,1.8,1.9S76.5,45.7,76.2,44.4z"/>
	<path class="st5" d="M84.2,47.1l-2.9,0.6l-1.8-8.6l2.7-0.6l0.3,1.6h0.1c0.1-1.2,1-2.1,2.2-2.3c1.6-0.3,3.2,0.7,3.5,2.4
		c0,0.1,0,0.2,0,0.3l1.2,5.5l-2.9,0.6l-1-4.9c-0.2-0.9-0.7-1.3-1.5-1.1c-0.7,0.1-1.2,0.8-1.1,1.5c0,0.1,0,0.2,0.1,0.2L84.2,47.1z"/>
</g>
</svg>
