<?xml version="1.0" encoding="utf-8"?>
<!-- Generator: Adobe Illustrator 24.0.2, SVG Export Plug-In . SVG Version: 6.00 Build 0)  -->
<svg version="1.1" id="Layer_1" xmlns="http://www.w3.org/2000/svg" xmlns:xlink="http://www.w3.org/1999/xlink" x="0px" y="0px"
	 viewBox="0 0 130 130" style="enable-background:new 0 0 130 130;" xml:space="preserve">
<style type="text/css">
	.st0{fill:#466EB0;}
</style>
<title>quick3</title>
<g id="Layer_2_1_">
	<path class="st0" d="M57.5,66.9c-0.4,24.1-35.6,24.1-36,0C21.8,42.8,57.1,42.9,57.5,66.9z"/>
	<path class="st0" d="M83.5,56.5c-0.4,24.1-35.6,24.1-36,0C47.9,32.4,83.1,32.4,83.5,56.5z"/>
	<path class="st0" d="M110.7,66.9c-0.4,24.1-35.6,24.1-36,0C75.1,42.8,110.3,42.9,110.7,66.9z"/>
	<path class="st0" d="M41.6,80.3c-0.1,11.3-25.5,13-26.3,0C14.5,67.9,41.5,69,41.6,80.3z"/>
	<path class="st0" d="M114.5,80.2c0,11.8-27.8,11.8-27.7,0S114.5,68.4,114.5,80.2z"/>
	<path class="st0" d="M114.8,80.1c-0.1,13.5-26.1,10.5-26.8,0.1C87.9,68.8,115.1,67.9,114.8,80.1z"/>
	<path class="st0" d="M20.8,85.8c-7.7,6.8,70.6,7.1,84.4,3.5c22-5.8-45.1-25-51.8-26.7c-0.3-0.1-0.7,0-1,0.2L20.8,85.8z"/>
	<path class="st0" d="M21.5,68.7"/>
	<path class="st0" d="M110.3,70.4c0,0-0.6,2.2,0.8,3.2s-2.4-0.2-2.4-0.2L110.3,70.4z"/>
	<path class="st0" d="M21.9,71c0.1,0.6-0.1,1.1-0.6,1.4c-0.8,0.5,0.9,1.6,0.9,1.6l1.4-2.1L21.9,71z"/>
	<path class="st0" d="M46.6,50.2c0,0,1.7,0.5,2.1-0.8s1.4,2.5,1.4,2.5l-3.3,1L46.6,50.2z"/>
	<path class="st0" d="M82.3,49.6c0.4,0.9,1.4,1.3,2.4,1c1.6-0.6-0.3,2.7-0.3,2.7L80.5,52L82.3,49.6z"/>
</g>
</svg>
