<?xml version="1.0" encoding="utf-8"?>
<!-- Generator: Adobe Illustrator 24.0.2, SVG Export Plug-In . SVG Version: 6.00 Build 0)  -->
<svg version="1.1" id="Layer_1" xmlns="http://www.w3.org/2000/svg" xmlns:xlink="http://www.w3.org/1999/xlink" x="0px" y="0px"
	 viewBox="0 0 340.2 340.2" style="enable-background:new 0 0 340.2 340.2;" xml:space="preserve">
<style type="text/css">
	.st0{display:none;opacity:0.54;}
	.st1{fill:#456DAE;}
	.st2{enable-background:new    ;}
	.st3{fill:#FFFFFF;}
</style>
<g id="Layer_1_1_" class="st0">
	
		<image style="display:inline;overflow:visible;enable-background:new    ;" width="1079" height="1440" xlink:href="1CF9D3EC.jpeg"  transform="matrix(0.846 0 0 0.846 575.1031 -250.9456)">
	</image>
</g>
<g id="Layer_2_1_">
	<g>
		<g>
			<g>
				<path class="st1" d="M143.5,159.1c-1.1,67.5-99.9,67.5-101,0C43.6,91.6,142.3,91.6,143.5,159.1z"/>
				<path class="st1" d="M216.5,129.8c-1.1,67.5-99.9,67.5-101,0C116.6,62.3,215.3,62.3,216.5,129.8z"/>
				<path class="st1" d="M292.5,159.1c-1.1,67.5-99.9,67.5-101,0C192.7,91.6,291.4,91.6,292.5,159.1z"/>
				<path class="st1" d="M99,196.5c-0.2,31.7-71.6,36.4-73.8,0C23,161.7,98.8,164.9,99,196.5z"/>
				<path class="st1" d="M303.2,196.3c0.1,33-77.9,33-77.8,0C225.3,163.2,303.3,163.2,303.2,196.3z"/>
				<path class="st1" d="M304,196c-0.3,37.9-73.1,29.5-75,0.3C228.6,164.4,305,162,304,196z"/>
				<path class="st1" d="M40.5,212c-21.7,19,197.8,19.9,236.5,9.8c61.8-16.1-126.5-70.1-145.1-74.7c-1-0.3-2,0-2.8,0.6
					C129.1,147.7,40.5,212,40.5,212z"/>
			</g>
			<path class="st1" d="M42.7,164.2"/>
			<path class="st1" d="M291.5,168.9c0,0-1.8,6,2.1,9c3.7,2.8-6.7-0.6-6.7-0.6L291.5,168.9z"/>
		</g>
		<path class="st1" d="M43.6,170.5c0,0,0.6,2.5-1.8,4c-2.3,1.5,2.4,4.5,2.4,4.5l4-5.9L43.6,170.5z"/>
		<path class="st1" d="M113.1,112.3c0,0,4.6,1.3,5.9-2.1c1.5-3.8,4,7.1,4,7.1l-9.3,2.7L113.1,112.3z"/>
		<path class="st1" d="M213,110.4c0,0,2.1,4.5,6.7,2.9c4.5-1.6-0.9,7.7-0.9,7.7l-10.8-3.7L213,110.4z"/>
	</g>
	<g class="st2">
		<path class="st3" d="M82.2,154.7h9.3v5.2h0.3c1-3.8,3.3-5.5,6.3-5.5c0.9,0,1.7,0.1,2.5,0.3v8.3c-1-0.4-2.6-0.5-3.6-0.5
			c-3,0-5.2,2.1-5.2,5.3v14.5h-9.6V154.7z"/>
		<path class="st3" d="M101.9,168.5c0-8.5,5.4-14.2,13.9-14.2c8.2,0,13.6,5.3,13.6,14.1v2.3h-18v0.4c0,2.8,1.8,4.9,4.9,4.9
			c2.1,0,3.8-0.9,4.4-2.5h8.8c-1,5.7-5.8,9.3-13.3,9.3C107.3,182.7,101.9,177.4,101.9,168.5z M120.6,165.3c-0.1-2.5-2-4.2-4.5-4.2
			c-2.6,0-4.6,1.7-4.7,4.2H120.6z"/>
		<path class="st3" d="M133.6,154.7h9.5v4.8h0.3c1.1-2.7,3.6-5.1,7.8-5.1c5.5,0,10.8,4.2,10.8,14.1c0,9.5-5,14.1-10.9,14.1
			c-4,0-6.5-2.1-7.7-4.9h-0.2v14.9h-9.6V154.7z M147.5,175.2c2.8,0,4.5-2.6,4.5-6.8c0-4.2-1.7-6.7-4.5-6.7c-2.9,0-4.6,2.5-4.6,6.7
			C143,172.6,144.6,175.2,147.5,175.2z"/>
		<path class="st3" d="M165.1,168.5c0-8.5,5.3-14.2,14.2-14.2c8.9,0,14.1,5.7,14.1,14.2c0,8.5-5.3,14.2-14.1,14.2
			C170.4,182.7,165.1,177,165.1,168.5z M183.6,168.5c0-4.4-1.6-7.1-4.3-7.1c-2.8,0-4.5,2.7-4.5,7.1c0,4.4,1.7,7.1,4.5,7.1
			C182,175.6,183.6,172.8,183.6,168.5z"/>
		<path class="st3" d="M209.7,160.8c-1.8,0-3.3,0.7-3.2,1.9c-0.1,0.9,0.6,1.6,2.8,2l5.5,1c5.6,1,8.3,3.4,8.4,7.5
			c-0.1,5.8-5.6,9.5-13.1,9.5c-8.3,0-13.1-3.7-13.7-9.3h9.5c0.3,1.8,1.9,2.8,4.2,2.8c1.9,0,3.3-0.7,3.3-1.9c-0.1-1.1-1-1.7-3.2-2.1
			l-4.8-0.9c-5.6-1-8.4-3.8-8.4-8.1c0-5.7,4.8-8.9,12.6-8.9c7.8,0,12.6,3.4,12.9,9.2h-8.8C213.4,161.8,211.8,160.8,209.7,160.8z"/>
		<path class="st3" d="M226,168.5c0-8.5,5.4-14.2,13.9-14.2c8.2,0,13.6,5.3,13.6,14.1v2.3h-18v0.4c0,2.8,1.8,4.9,4.9,4.9
			c2.1,0,3.8-0.9,4.4-2.5h8.8c-1,5.7-5.8,9.3-13.3,9.3C231.3,182.7,226,177.4,226,168.5z M244.6,165.3c-0.1-2.5-2-4.2-4.5-4.2
			c-2.6,0-4.6,1.7-4.7,4.2H244.6z M240,143.2h8.3l-5.4,8.1h-6.4L240,143.2z"/>
	</g>
</g>
</svg>
